# xmcd
#
# Track frame offsets: 
#        150
#        25011
#        57463
#        82710
#        103518
#        121034
#        143750
#        172450
#        195182
#        221120
#        264396
#
# Disc length: 3756 seconds
#
# Revision: 3
# Processed by: cddbd v1.5.2PL0 Copyright (c) Steve Scherf et al.
# Submitted via: ExactAudioCopy v0.99pb5
#
DISCID=900eaa0b
DTITLE=Jack DeJohnette - Music We Are
DYEAR=2009
DGENRE=Contemporary Jazz
TTITLE0=Tango African
TTITLE1=Earth Prayer
TTITLE2=Seventh D, 1st Movement
TTITLE3=Seventh D, 2nd Movement
TTITLE4=Soulful Ballad
TTITLE5=Earth Speaks
TTITLE6=Cobilla
TTITLE7=Panama Viejo
TTITLE8=White
TTITLE9=Ode to MJQ
TTITLE10=Michael
EXTD=YEAR: 2009
EXTT0=
EXTT1=
EXTT2=
EXTT3=
EXTT4=
EXTT5=
EXTT6=
EXTT7=
EXTT8=
EXTT9=
EXTT10=
PLAYORDER=
